<?xml version="1.0" encoding="utf-8"?>
<!-- Generator: Adobe Illustrator 16.0.0, SVG Export Plug-In . SVG Version: 6.00 Build 0)  -->
<!DOCTYPE svg PUBLIC "-//W3C//DTD SVG 1.1//EN" "http://www.w3.org/Graphics/SVG/1.1/DTD/svg11.dtd">
<svg version="1.1" id="Layer_1" xmlns="http://www.w3.org/2000/svg" xmlns:xlink="http://www.w3.org/1999/xlink" x="0px" y="0px"
	 width="168px" height="47px" viewBox="30 3 140 39" xml:space="preserve">
<path fill="rgb(195, 195, 195)" d="M41.491,6.962c1.85,0,3.389,1.54,3.389,3.389c0,1.85-1.54,3.389-3.389,3.389
	c-1.849,0-3.389-1.54-3.389-3.389S39.641,6.962,41.491,6.962L41.491,6.962z"/>
<path fill="rgb(195, 195, 195)" d="M35.651,4.99c0.249,0.015,0.441,0.222,0.441,0.468l0.001,32.265c0,0.258-0.21,0.469-0.469,0.469
	c-1.687,0-3.374,0-5.061,0c-0.259,0-0.469-0.211-0.469-0.469V5.146c0-0.283,0.253-0.5,0.53-0.466
	C32.299,4.784,33.975,4.887,35.651,4.99L35.651,4.99z"/>
<path fill="rgb(195, 195, 195)" d="M38.944,14.032l5.13,0.315c0.249,0.015,0.441,0.221,0.441,0.468h0.001v22.899c0,0.261-0.21,0.47-0.47,0.47
	h-5.163c-0.259,0-0.469-0.209-0.469-0.47V14.498c0-0.259,0.21-0.469,0.469-0.469C38.904,14.028,38.924,14.029,38.944,14.032
	L38.944,14.032z"/>
<path fill="rgb(195, 195, 195)" d="M47.08,12.255c0-2.309,1.071-4.59,2.817-6.095c1.833-1.581,4.316-2.138,6.655-1.523L57.17,4.8
	c0.224,0.058,0.367,0.269,0.348,0.492l-0.183,5.006c-0.009,0.253-0.217,0.452-0.468,0.452l-2.364,0.001
	c-1.004,0-1.423,0.858-1.423,1.759v6.171h3.392c0.259,0,0.469,0.21,0.469,0.47v5.156c0,0.26-0.21,0.471-0.469,0.471H53.08v18.067
	c0,0.259-0.21,0.47-0.47,0.47l-5.034,0.289c-0.267,0.016-0.494-0.201-0.494-0.468L47.08,12.255L47.08,12.255z"/>
<path fill="rgb(195, 195, 195)" d="M58.75,21.332c0-0.965,0.2-1.997,0.602-2.979c1.184-2.891,3.857-4.67,6.975-4.67
	c2.902,0,5.457,1.639,6.692,4.265c0.438,0.929,0.655,1.876,0.655,2.676v5.544c0,0.93-0.354,1.676-0.929,2.202
	c-0.603,0.552-1.442,0.848-2.36,0.848h-5.636v1.401c0,0.941,0.557,1.805,1.571,1.805h4.807c0.268,0,0.482,0.227,0.469,0.493
	l0.139,4.354c0.007,0.24-0.168,0.444-0.4,0.479l-4.999,0.732c-0.262,0.033-0.523,0.059-0.788,0.059c-1.672,0-3.25-0.775-4.428-1.934
	c-1.491-1.461-2.37-3.533-2.37-5.623V21.332L58.75,21.332z M66.238,19.747c-0.806,0-1.489,0.684-1.489,1.49v1.904h2.978v-1.904
	C67.727,20.43,67.043,19.747,66.238,19.747L66.238,19.747z"/>
<path fill="rgb(195, 195, 195)" d="M80.894,14.621c0.881-0.206,1.789-0.309,2.693-0.309c2.017,0,3.852,0.751,5.199,2.27
	c1.231,1.386,1.743,3.242,1.743,5.068v16.073c0,0.26-0.21,0.471-0.469,0.471h-3.226c-0.259,0-0.47-0.211-0.47-0.471V21.58
	c0-1.755-1.202-2.727-2.896-2.727h-2.575V37.72c0,0.259-0.21,0.47-0.469,0.47c-1.075,0-2.15-0.002-3.226-0.002
	c-0.258,0-0.468-0.209-0.468-0.467L76.729,5.33c0-0.259,0.21-0.469,0.47-0.469h3.226c0.259,0,0.469,0.21,0.469,0.469V14.621
	L80.894,14.621z"/>
<path fill="rgb(195, 195, 195)" d="M130.805,37.72c0,0.259-0.212,0.47-0.471,0.47c-1.074,0-2.15-0.002-3.227-0.002
	c-0.258,0-0.467-0.209-0.467-0.467V5.33c0-0.259,0.209-0.469,0.469-0.469h3.226c0.259,0,0.47,0.21,0.47,0.469v18.898l5.637-9.351
	c0.088-0.146,0.244-0.227,0.401-0.227l3.763-0.001c0.379,0,0.604,0.396,0.389,0.733l-6.088,10.297l6.607,11.805
	c0.178,0.315-0.062,0.699-0.408,0.699h-3.633c-0.188,0-0.354-0.113-0.428-0.273l-6.24-10.861V37.72L130.805,37.72z"/>
<path fill="rgb(195, 195, 195)" d="M169.598,14.966c0.201,0.074,0.322,0.271,0.307,0.475l-0.114,2.66c-0.011,0.251-0.218,0.448-0.467,0.448
	c0,0.001-2.847-0.001-3.073,0.001c-0.248,0-0.498,0.001-0.744,0.041c-0.727,0.116-1.347,0.493-1.785,1.031
	c-0.449,0.548-0.711,1.265-0.711,2.047v16.056c0,0.258-0.21,0.469-0.47,0.469h-3.226c-0.26,0-0.471-0.211-0.471-0.469v-16.2
	c0-1.702,0.588-3.314,1.598-4.583C162.738,14.052,166.385,13.798,169.598,14.966L169.598,14.966z"/>
<path fill="rgb(195, 195, 195)" d="M153.043,34.307c0.248,0,0.45,0.192,0.467,0.438l0.174,2.56c0.016,0.244-0.162,0.459-0.4,0.493l-4.271,0.626
	c-0.3,0.043-0.602,0.067-0.902,0.067c-1.608,0-3.102-0.679-4.205-1.839c-1.271-1.336-1.969-3.192-1.969-5.029V21.04
	c0-3.542,3.168-6.728,6.713-6.728c3.754,0,7.106,2.897,7.106,6.755v5.242c0,1.308-0.929,2.215-2.229,2.215L146.1,28.52v2.44
	c0,1.001,0.264,1.888,0.795,2.494c0.465,0.532,1.156,0.858,2.078,0.858L153.043,34.307L153.043,34.307z M148.846,18.582
	c-1.49,0-2.746,1.256-2.746,2.745v3h5.489v-3C151.589,19.845,150.326,18.582,148.846,18.582L148.846,18.582z"/>
<path fill="rgb(195, 195, 195)" d="M116.866,14.312c3.555,0,6.896,2.958,6.897,6.598v0.778c0,0.254-0.205,0.462-0.457,0.467l-3.265,0.084
	c-0.258,0.006-0.472-0.197-0.479-0.455l-0.023-0.796c-0.04-1.365-1.362-2.406-2.674-2.406c-1.477,0-2.734,1.259-2.734,2.735V31.52
	c0,1.562,1.208,2.787,2.771,2.787c1.002,0,2.434-0.796,2.57-1.888l0.092-0.741c0.031-0.257,0.266-0.438,0.522-0.408l3.271,0.176
	c0.259,0.013,0.457,0.231,0.443,0.49c-0.016,0.295-0.078,0.602-0.117,0.893c-0.436,3.252-3.604,5.727-6.818,5.727
	c-3.711,0-6.899-3.031-6.899-6.777V21.211C109.967,17.407,113.062,14.312,116.866,14.312L116.866,14.312z"/>
<path fill="rgb(195, 195, 195)" d="M97.87,14.504c2.644-0.498,5.374,0.13,7.198,2.235c1.125,1.298,1.771,3.01,1.773,4.849l0.02,9.75
	c0.009,3.926-2.737,6.967-6.67,7.089c-3.71,0.114-7.143-2.94-7.143-6.713v-2.243c0-2.033,0.722-3.701,1.941-4.873
	c1.252-1.203,3.021-1.873,5.062-1.873c0.883,0,1.768,0.08,2.641,0.219l-0.004-2.103c0-0.678-0.191-1.387-0.696-1.869
	c-0.525-0.501-1.263-0.642-1.962-0.598l-4.394,0.284c-0.258,0.017-0.481-0.18-0.497-0.438L95,15.711
	c-0.012-0.211,0.118-0.396,0.307-0.466C95.271,15.139,97.674,14.541,97.87,14.504L97.87,14.504z M102.697,26.369h-2.43
	c-0.952,0-1.708,0.311-2.225,0.846c-0.537,0.557-0.83,1.368-0.83,2.34c0,0.537-0.017,1.079,0.001,1.615
	c0.058,1.557,1.029,3.07,2.725,3.07c0.063,0,0.102,0,0.112-0.001c1.521-0.058,2.652-1.267,2.652-2.778L102.697,26.369
	L102.697,26.369z"/>
<path fill="rgb(195, 195, 195)" d="M41.491,7.416c1.61,0,2.936,1.326,2.936,2.936s-1.326,2.937-2.936,2.937c-1.61,0-2.937-1.326-2.937-2.937
	S39.88,7.416,41.491,7.416L41.491,7.416z"/>
<path fill="rgb(195, 195, 195)" d="M35.624,5.458v32.265c-1.687,0-3.374,0-5.061,0V5.146C32.25,5.25,33.937,5.354,35.624,5.458L35.624,5.458z"
	/>
<polygon fill="rgb(195, 195, 195)" points="38.883,14.498 44.046,14.815 44.046,37.715 38.883,37.715 "/>
<path fill="rgb(195, 195, 195)" d="M47.549,12.255c0-2.171,1.01-4.323,2.654-5.74c1.739-1.499,4.034-2.002,6.229-1.425l0.618,0.163
	c-0.061,1.676-0.122,3.353-0.184,5.03h-2.364c-1.296,0-1.893,1.048-1.893,2.229v6.641h3.862c0,1.718,0,3.437,0,5.156h-3.862v18.539
	l-5.06,0.291V12.255L47.549,12.255z"/>
<path fill="rgb(195, 195, 195)" d="M59.219,21.332c0-1.755,0.7-3.737,2.117-5.17c1.18-1.193,2.842-2.009,4.99-2.009
	c1.994,0,3.554,0.754,4.683,1.808c1.466,1.368,2.194,3.264,2.194,4.664v5.544c0,1.636-1.267,2.58-2.819,2.58h-6.106v1.871
	c0,1.198,0.75,2.274,2.041,2.274h4.807c0.046,1.463,0.094,2.929,0.141,4.394l-5,0.731c-0.246,0.035-0.485,0.053-0.72,0.053
	c-1.513,0-2.967-0.687-4.1-1.797c-1.405-1.379-2.229-3.325-2.229-5.291v-9.652H59.219z M66.238,19.277
	c-1.069,0-1.959,0.89-1.959,1.959v2.374h3.917v-2.374C68.196,20.167,67.307,19.277,66.238,19.277L66.238,19.277z"/>
<path fill="rgb(195, 195, 195)" d="M80.424,15.228c1.02-0.299,2.101-0.447,3.163-0.447c1.92,0,3.564,0.663,4.849,2.11
	c1.16,1.306,1.624,3.04,1.624,4.758v16.074c-1.075,0-2.15,0-3.226,0V21.58c0-0.898-0.291-1.758-0.909-2.351
	c-0.538-0.516-1.346-0.846-2.457-0.846h-3.044V37.72c-1.075,0-2.15,0-3.226,0V5.33c1.075,0,2.15,0,3.226,0V15.228L80.424,15.228z"/>
<path fill="rgb(195, 195, 195)" d="M130.334,37.72c-1.074,0-2.15,0-3.227,0V5.33c1.076,0,2.151,0,3.227,0
	C130.334,16.126,130.334,26.923,130.334,37.72L130.334,37.72z M136.842,15.121h3.762l-6.24,10.553l6.74,12.041h-3.631l-6.475-11.268
	c-0.477-0.829-0.446-0.891,0.047-1.709L136.842,15.121L136.842,15.121z"/>
<path fill="rgb(195, 195, 195)" d="M164.592,14.887c1.691-0.353,3.289-0.046,4.846,0.52c-0.037,0.892-0.076,1.783-0.115,2.674h-0.764
	c-0.154,0-1.691-0.001-2.31,0.001c-0.272,0.001-0.546,0.004-0.815,0.046c-1.701,0.271-2.895,1.766-2.895,3.541v16.056
	c-1.075,0-2.15,0-3.225,0v-16.2C159.314,18.361,161.479,15.536,164.592,14.887L164.592,14.887z"/>
<path fill="rgb(195, 195, 195)" d="M148.973,34.782l4.07-0.009c0.059,0.854,0.115,1.707,0.172,2.56l-4.271,0.625
	c-0.289,0.042-0.567,0.062-0.836,0.062c-1.573,0-2.892-0.666-3.864-1.691c-1.187-1.247-1.837-2.993-1.837-4.706V21.04
	c0-3.286,2.951-6.258,6.242-6.258c3.502,0,6.638,2.643,6.638,6.286v5.241c0,1.076-0.696,1.746-1.763,1.746l-7.894-0.004v2.909
	C145.63,33.079,146.729,34.782,148.973,34.782L148.973,34.782z M148.846,18.112c-1.756,0-3.216,1.458-3.216,3.214v3.469h6.431
	v-3.469C152.061,19.58,150.592,18.112,148.846,18.112L148.846,18.112z"/>
<path fill="rgb(195, 195, 195)" d="M116.866,14.781c3.305,0,6.429,2.741,6.43,6.128v0.778c-1.088,0.027-2.176,0.055-3.264,0.083l-0.023-0.796
	c-0.049-1.621-1.573-2.863-3.143-2.863c-1.741,0-3.204,1.463-3.204,3.205V31.52c0,1.838,1.404,3.256,3.242,3.256
	c1.223,0,2.869-0.985,3.035-2.299l0.094-0.742c1.1,0.061,2.201,0.119,3.302,0.179l-0.114,0.854
	c-0.404,3.021-3.381,5.315-6.354,5.315V38.08c-3.478,0-6.431-2.786-6.431-6.305V21.211
	C110.438,17.638,113.291,14.781,116.866,14.781L116.866,14.781z"/>
<path fill="rgb(195, 195, 195)" d="M95.468,15.686c1.645-0.604,3.297-1.041,5.073-0.831c3.491,0.414,5.827,3.342,5.834,6.733l0.02,10.121
	c0,3.552-3.096,6.338-6.573,6.25c-3.315-0.085-6.304-2.843-6.304-6.245v-2.243c0-3.861,2.756-6.276,6.535-6.276
	c1.044,0,2.083,0.112,3.108,0.307l-0.005-2.661c-0.002-1.847-1.186-3.06-3.156-2.934l-4.393,0.284
	C95.56,17.356,95.514,16.521,95.468,15.686L95.468,15.686z M103.165,25.898h-2.897c-2.203,0-3.525,1.496-3.525,3.656v1.461
	c0,1.93,1.209,3.77,3.324,3.69c1.766-0.067,3.105-1.464,3.105-3.246L103.165,25.898L103.165,25.898z"/>
<polygon fill="rgb(195, 195, 195)" points="31.365,5.997 34.822,6.21 34.822,36.922 31.365,36.922 "/>
<polygon fill="rgb(195, 195, 195)" points="39.736,15.345 43.193,15.558 43.193,36.922 39.736,36.922 "/>
<path fill="rgb(195, 195, 195)" d="M41.491,8.207c1.185,0,2.145,0.96,2.145,2.145c0,1.184-0.96,2.145-2.145,2.145
	c-1.185,0-2.145-0.96-2.145-2.145S40.306,8.207,41.491,8.207L41.491,8.207z"/>
<path fill="rgb(195, 195, 195)" d="M48.35,12.255c0-3.792,3.458-7.555,7.878-6.392l-0.132,3.618h-1.594c-1.358,0-2.694,0.922-2.694,3.03v7.442
	h3.861v3.553h-3.861v18.585L48.35,42.29V12.255L48.35,12.255z"/>
<path fill="rgb(195, 195, 195)" d="M79.623,16.381c1.124-0.542,2.685-0.799,3.964-0.799c1.766,0,3.092,0.532,4.251,1.838
	c0.881,0.993,1.42,2.396,1.42,4.229v15.272h-1.623V21.58c0-2.06-1.288-3.998-4.167-3.998h-3.846v19.339H78V6.131h1.623V16.381
	L79.623,16.381z"/>
<path fill="rgb(195, 195, 195)" d="M137.3,15.914h1.903l-5.766,9.748l6.304,11.26h-1.802l-6.139-10.683c-0.351-0.611-0.322-0.669,0.041-1.273
	L137.3,15.914L137.3,15.914z M129.532,36.922h-1.622V6.132h1.622C129.532,16.395,129.532,26.658,129.532,36.922L129.532,36.922z"/>
<path fill="rgb(195, 195, 195)" d="M168.613,15.962c-2.327-0.828-5.176-0.528-6.91,1.44c-0.883,0.993-1.588,2.291-1.588,4.123v15.396h1.623
	V21.669c0-2.025,1.445-4.387,4.255-4.387h2.563L168.613,15.962L168.613,15.962z"/>
<path fill="rgb(195, 195, 195)" d="M152.295,35.576h-3.375c-2.12,0-4.091-1.502-4.091-4.616v-3.707h8.692c0.627,0,0.961-0.263,0.961-0.944
	v-5.241c0-2.207-1.75-5.485-5.836-5.485c-2.854,0-5.44,2.611-5.44,5.457v10.583c0,2.959,2.216,6.042,5.62,5.544l3.541-0.519
	L152.295,35.576L152.295,35.576z M148.846,17.311c2.197,0,4.016,1.817,4.016,4.016v4.271h-8.031v-4.271
	C144.829,19.118,146.637,17.311,148.846,17.311L148.846,17.311z"/>
<path fill="rgb(195, 195, 195)" d="M116.866,15.583c2.807,0,5.63,2.311,5.632,5.327l-1.691,0.043c-0.062-2.067-1.953-3.642-3.939-3.642
	c-2.193,0-4.006,1.812-4.006,4.006V31.52c0,2.205,1.654,4.058,4.043,4.058c1.83,0,3.643-1.495,3.832-3.003l1.693,0.09
	c-0.316,2.367-2.72,4.619-5.562,4.619c-3.081,0-5.629-2.424-5.629-5.506V21.211C111.236,17.979,113.771,15.583,116.866,15.583
	L116.866,15.583z"/>
<path fill="rgb(195, 195, 195)" d="M96.299,16.232l0.061,1.108c1.713-0.111,2.229-0.144,3.59-0.232c2.552-0.165,4,1.602,4.004,3.732
	l0.007,3.651c-1.24-0.294-2.479-0.497-3.908-0.497c-3.326,0-5.733,1.896-5.733,5.476v2.243c0,3,2.668,5.446,5.649,5.446
	c3.082,0,5.634-2.37,5.628-5.452l-0.02-10.12c-0.004-1.828-0.695-3.4-1.872-4.477C101.633,15.218,98.766,15.326,96.299,16.232
	L96.299,16.232z M103.961,25.098l0.014,6.354c0.004,2.203-1.656,4.057-4.043,4.057c-1.831,0-3.989-1.354-3.989-4.491v-1.463
	c0-2.791,1.769-4.457,4.326-4.457H103.961L103.961,25.098z"/>
</svg>
