<?xml version="1.0" encoding="UTF-8" standalone="no"?>
<svg
xmlns="http://www.w3.org/2000/svg"
width="333.896338319"
height="47"
viewBox="0 0 186.9126 26.205312"
style="overflow:visible"
xml:space="preserve"
id="svg2"
version="1.1">
  <defs
  id="defs45">
</defs>
  <g
  id="Layer_1"
  transform="translate(-1.3344729,-2.982068)">
    <path
   
	id="path9"
	d="m 13.016602,3.0649414 c 0.523437,0 1.220703,0.1743164 1.917968,0.8720703 0.697754,0.5229492 0.697754,1.5688477 0.523438,2.440918 -0.174805,0.6972656 -0.349121,1.2207031 -1.220703,1.7436523 -0.871582,0.5229492 -1.743652,0.5229492 -1.743652,0.5229492 V 11.95752 l 1.569335,1.394531 -1.569335,1.220703 v 4.708496 c 0,0 1.569335,-1.046875 2.615234,-3.13916 0,0 0,0 0.174316,-0.349121 0,0.697754 0,1.743652 -0.697265,3.3125 -0.348633,1.046875 -1.220215,2.09375 -2.440918,2.791015 -1.917969,1.044922 -3.3129886,1.044922 -4.8823245,0.871094 C 5.3447267,22.244141 3.6010744,21.199219 2.555176,19.455078 1.683594,18.234375 1.3344729,16.665039 1.3344729,15.095703 1.5087893,11.95752 3.7753909,9.3422851 6.3911135,8.2958984 6.7397461,8.121582 6.9140625,8.121582 7.4370117,8.121582 c -0.1743164,0 -0.5229492,0.1743164 -0.871582,0.5229492 C 5.6933594,9.1674804 4.9960938,10.213867 4.6474609,11.085449 L 9.8784179,8.8188476 V 16.14209 l -4.1850585,2.092285 c 0.5234375,0.697266 1.918457,1.744141 3.1386719,1.744141 2.2666017,0.347656 3.4873047,-0.697266 3.4873047,-0.697266 V 14.572754 L 10.575684,13.352051 12.319336,11.95752 V 8.6445312 C 11.447754,8.4702148 10.227051,8.121582 9.7041016,7.9472656 8.6577148,7.7729492 5.519043,6.9008789 5.1704102,6.9008789 4.6474609,6.7265625 3.9501953,6.7265625 3.6010742,7.0751953 3.2524414,7.4243164 3.078125,7.9472656 3.2524414,8.4702148 c 0,0.3486328 0.1743164,0.5229492 0.3486328,0.6972656 0,0 -0.1743164,0 -0.5229492,-0.1743164 C 2.5551758,8.6445312 2.0322266,7.9472656 2.0322266,7.0751953 c 0,-1.0458984 0.3486328,-2.0922852 1.3945312,-2.7895508 C 4.1245117,3.762207 4.9960938,3.4135742 6.0424805,3.5878906 7.6118164,3.762207 9.7041016,4.6342773 11.62207,5.1572265 12.319336,5.3315429 12.842285,5.3315429 13.365723,4.9829101 13.540039,4.8085937 14.062988,4.4599609 13.714355,3.9370117 13.191406,3.2392578 12.493652,3.2392578 11.796387,3.0649414 c 0.522949,-0.1743164 0.697265,-0.1743164 1.220215,0 l 0,0 z M 6.7397461,17.536621 v -7.148437 l -2.0922852,1.045898 c 0,0 -0.5229492,1.220703 -0.5229492,2.964356 0.1743164,1.394531 0.871582,2.963867 1.3945312,3.661132 l 1.2207032,-0.522949 0,0 z"
	style="fill:#c3c3c3;fill-rule:evenodd" />
    <path
   
	id="path11"
	d="m 33.242187,10.039551 c 0,0 -1.743652,1.045898 -2.78955,1.743652 -1.046387,0.522949 -2.440918,1.220215 -2.440918,1.220215 v 6.799316 L 26.965332,20.5 l 0.174316,0.175781 0.872071,-0.697265 2.963867,2.615234 5.230957,-4.010742 -0.174805,-0.174317 -2.789551,2.26709 -2.440918,-2.26709 v -0.697754 l 4.70752,-3.486816 -2.266602,-4.18457 0,0 z m 0,5.579101 -2.440918,1.743653 v -5.753418 l 2.440918,4.009765 0,0 z"
	style="fill:#c3c3c3;fill-rule:evenodd" />
    <path
   
	id="path13"
	d="m 19.816406,25.208984 c 0.697754,0 1.743652,0.173828 3.312988,-0.523437 1.569336,-0.871094 2.26709,-2.441406 2.26709,-4.185547 l 0.174317,-2.44043 v -5.404785 l 0.871582,-0.697265 v -0.174317 l -1.045899,0.697266 -2.26709,-2.440918 -2.963867,2.440918 V 3.9370117 l -3.661621,2.7895508 c 0.174317,0.1743164 0.697266,0.1743164 0.697266,1.0463867 V 19.802734 l -1.568848,1.046875 0.174317,0.173829 0.697265,-0.523438 2.092285,1.917969 3.312989,-2.615235 -0.174805,-0.173828 -0.697266,0.697266 -0.871582,-0.871094 v -6.625976 l 0.871582,-0.871582 1.569336,1.743652 c 0,0 0,4.358398 0,5.753906 0,1.568359 0,3.486328 -0.87207,4.359375 -0.871582,1.044922 -1.045898,1.044922 -1.917969,1.394531 l 0,0 z"
	style="fill:#c3c3c3;fill-rule:evenodd" />
    <path
   
	id="path15"
	d="m 42.657715,24.511719 c -1.39502,-0.175781 -1.917969,-0.873047 -1.917969,-1.570313 0,-0.347656 0.522949,-1.220703 1.220703,-1.220703 0.871582,-0.173828 1.568848,0.175781 2.266602,1.046875 l 3.138183,-3.486328 h -0.174316 l -0.871582,0.871094 C 45.621582,19.28125 44.401367,18.583008 43.180664,18.408692 V 8.121582 l 7.846192,14.472168 c 0,0 0.174316,0.173828 0.522949,0.173828 0.174316,0 0.174316,-0.173828 0.174316,-0.173828 V 8.121582 c 0.697754,-0.1743164 1.569336,-0.5229492 2.092285,-0.8720703 1.569336,-1.5688477 0.872071,-3.3125 0.697754,-3.4873047 0,0.6977539 -0.697754,1.3950195 -1.569336,1.5693359 -1.220703,0 -2.092285,-1.0458984 -2.092285,-1.0458984 L 47.888184,7.7729492 48.0625,7.9472656 48.93457,6.9008789 c 1.045899,1.0463867 1.743653,1.0463867 2.615235,1.2207031 v 8.369141 L 45.621582,5.8549805 C 45.098633,4.9829102 44.401367,4.1113282 43.006348,4.1113282 c -1.394532,0 -2.440918,1.2202148 -2.615235,2.440918 -0.174316,1.2207032 0,1.5693359 0,1.5693359 0,0 0.174317,-1.3950196 1.046387,-1.3950196 0.871582,0 1.220215,0.6977539 1.568848,1.2207031 v 3.1381834 c -0.871582,0 -2.963868,0 -2.963868,2.266602 0,0.697754 0.52295,1.569336 0.871582,1.917969 0.523438,0.348632 1.046387,0.348632 1.046387,0.348632 0,0 -0.697754,-0.348632 -0.522949,-1.045898 0.174316,-0.697266 1.568848,-0.697266 1.568848,-0.522949 v 4.358886 c -0.697266,0 -2.615235,0 -3.661621,1.743653 -0.52295,1.046875 -0.52295,2.265625 0.174316,3.138672 0.523438,0.697265 1.395019,1.568359 3.138672,1.220703 l 0,0 z"
	style="fill:#c3c3c3;fill-rule:evenodd" />
    <path
   
	id="path17"
	d="m 59.395996,10.039551 c 0,0 -1.568848,1.045898 -2.789551,1.743652 -1.046386,0.522949 -2.440918,1.220215 -2.440918,1.220215 v 6.799316 L 53.119141,20.5 l 0.174316,0.175781 1.046387,-0.697265 2.789551,2.615234 5.230957,-4.010742 -0.174805,-0.174317 -2.789551,2.26709 -2.266602,-2.26709 v -0.697754 l 4.533204,-3.486816 -2.266602,-4.18457 0,0 z m 0,5.579101 -2.266602,1.743653 v -5.753418 l 2.266602,4.009765 0,0 z"
	style="fill:#c3c3c3;fill-rule:evenodd" />
    <path
   
	id="path19"
	d="M 66.544922,22.59375 63.929199,20.5 l -1.045898,0.873047 -0.174317,-0.173828 1.220215,-0.873047 v -5.753418 c 0,-2.440918 -2.266601,-1.743652 -2.092285,-4.358887 0,-1.0463865 1.046387,-1.9179686 1.743652,-2.2666014 0.522949,-0.1743164 1.220703,-0.1743164 1.220703,-0.1743164 0,0 -1.046386,0.5229492 -0.87207,1.5693359 0.348633,1.3945309 2.790039,1.3945309 2.964356,3.3124999 v 6.626465 l 1.743652,1.394531 0.522949,-0.349609 v -7.148438 l -1.046387,-0.871582 2.441407,-2.266601 2.266601,2.092285 -0.871582,0.871582 v 6.277832 l 2.266602,1.742187 0.348633,-0.173828 v -7.671875 l -1.046387,-0.871582 2.440918,-2.266601 2.440918,1.917969 0.87207,-0.872071 0.174317,0.174805 -2.092286,1.91748 v 6.103516 l -5.404785,3.3125 -2.790039,-2.09375 -2.615234,2.09375 0,0 z"
	style="fill:#c3c3c3;fill-rule:evenodd" />
    <path
   
	id="path21"
	d="m 176.39062,10.039551 c 0,0 -1.74414,1.045898 -2.79003,1.743652 -1.0459,0.522949 -2.44043,1.220215 -2.44043,1.220215 v 6.799316 L 170.11328,20.5 l 0.17481,0.175781 0.87207,-0.697265 2.96386,2.615234 5.23047,-4.010742 -0.17383,-0.174317 -2.79004,2.26709 -2.4414,-2.26709 v -0.697754 l 4.70801,-3.486816 -2.26661,-4.18457 0,0 z m 0,5.579101 -2.4414,1.743653 v -5.753418 l 2.4414,4.009765 0,0 z"
	style="fill:#c3c3c3;fill-rule:evenodd" />
    <polygon
	id="polygon23"
	points="161.39551,22.417969 163.66211,20.326172 162.79102,19.455078 162.79102,12.654785 163.31348,12.131836 165.05762,14.049805 165.05762,19.455078 164.53418,19.978516 166.80078,22.59375 169.93945,19.628906 169.76465,19.455078 169.06738,20.152344 167.84668,18.931641 167.84668,12.654785 168.89355,11.783203 168.89355,11.608887 167.67285,12.480469 165.58008,10.213867 162.61621,12.480469 160.52344,10.213867 157.55957,12.480469 155.46777,10.213867 152.3291,13.003418 152.3291,13.003418 152.50391,13.003418 153.375,12.306152 154.77051,13.875488 154.77051,19.455078 154.07324,19.978516 156.33984,22.59375 158.60547,20.326172 157.73438,19.28125 157.73438,12.654785 158.25684,12.131836 159.82617,14.049805 159.82617,19.628906 159.30371,20.152344 "
	style="fill:#c3c3c3;fill-rule:evenodd" />
    <polygon
	id="polygon25"
	points="152.15527,11.95752 152.15527,11.783203 151.1084,12.654785 149.0166,10.213867 146.05176,12.829102 146.05176,12.829102 146.05176,12.829102 146.92383,12.131836 148.14453,13.701172 148.14453,19.978516 147.27246,20.849609 147.44727,21.023438 148.31934,20.152344 150.41113,22.59375 153.375,19.978516 153.20117,19.802734 152.3291,20.5 151.1084,19.105469 151.1084,12.829102 "
	style="fill:#c3c3c3;fill-rule:evenodd" />
    <polygon
	id="polygon27"
	points="146.92383,7.4243164 146.92383,7.4243164 149.0166,5.5058594 150.93457,7.4243164 148.66797,9.5166016 "
	style="fill:#c3c3c3;fill-rule:evenodd" />
    <path
   
	id="path29"
	d="m 143.78516,3.0649414 c 0.52343,0 1.3955,0.1743164 2.09277,0.8720703 0.52246,0.5229492 0.69727,1.5688477 0.52246,2.440918 -0.17383,0.6972656 -0.52246,1.2207031 -1.21973,1.7436523 -0.87207,0.5229492 -1.74414,0.5229492 -1.74414,0.5229492 V 11.95752 l 1.56934,1.394531 -1.56934,1.220703 v 4.708496 c 0,0 1.56934,-1.046875 2.61524,-3.13916 0,0 0,0 0.1748,-0.349121 0,0.697754 0,1.743652 -0.69726,3.3125 -0.34864,1.046875 -1.39551,2.09375 -2.44141,2.791015 -1.91797,1.044922 -3.4873,1.044922 -5.05566,0.871094 -1.74414,-0.523437 -3.48731,-1.568359 -4.53418,-3.3125 -0.8711,-1.220703 -1.21973,-2.790039 -1.21973,-4.359375 0,-3.138183 2.44043,-5.7534179 5.05566,-6.7998046 0.34961,-0.1743164 0.52344,-0.1743164 1.04688,-0.1743164 -0.34863,0 -0.52344,0.1743164 -0.87207,0.5229492 -0.87207,0.5229492 -1.56934,1.5693358 -1.91797,2.4409178 l 5.23047,-2.2666014 V 16.14209 l -4.18457,2.092285 c 0.52344,0.697266 1.91797,1.744141 3.13867,1.744141 2.0918,0.347656 3.3125,-0.697266 3.3125,-0.697266 v -4.708496 l -1.56934,-1.220703 1.56934,-1.394531 V 8.6445312 c -0.87109,-0.1743164 -1.91797,-0.5229492 -2.61523,-0.6972656 -0.87207,-0.1743164 -4.00977,-1.0463867 -4.53321,-1.0463867 -0.34863,-0.1743164 -1.0459,-0.1743164 -1.39453,0.1743164 -0.34863,0.3491211 -0.52344,0.8720703 -0.52344,1.3950195 0.17481,0.3486328 0.34864,0.5229492 0.52344,0.6972656 0,0 -0.1748,0 -0.52344,-0.1743164 -0.52343,-0.3486328 -1.04589,-1.0458984 -1.04589,-1.9179688 -0.17481,-1.0458984 0.34863,-2.0922852 1.2207,-2.7895508 0.87109,-0.5234375 1.74316,-0.8720703 2.78906,-0.6977539 1.56934,0.1743164 3.66211,1.0463867 5.40527,1.5693359 0.87208,0.1743164 1.39454,0.1743164 1.91797,-0.1743164 0.17383,-0.1743164 0.52344,-0.5229492 0.17383,-1.0458984 -0.34863,-0.6977539 -1.0459,-0.6977539 -1.74316,-0.8720703 0.52344,-0.1743163 0.69726,-0.1743163 1.0459,10e-8 l 0,0 z m -6.10157,14.4716796 v -7.148437 l -2.09277,1.045898 c 0,0 -0.69727,1.220703 -0.52344,2.964356 0,1.394531 0.87207,2.963867 1.39551,3.661132 l 1.2207,-0.522949 0,0 z"
	style="fill:#c3c3c3;fill-rule:evenodd" />
    <path
   
	id="path31"
	d="m 181.96973,23.464844 c -0.34864,0.173828 -1.74317,-0.173828 -2.0918,-1.744141 -0.34863,-1.568359 0.69727,-2.439453 2.2666,-4.184082 l -1.91797,-1.569336 v -3.3125 c 0,0 1.39453,-0.522949 2.44141,-1.220703 1.0459,-0.697265 2.0918,-1.394531 2.0918,-1.394531 0,0 0.87207,1.045898 1.74316,0.871582 1.39551,-0.174316 1.39551,-1.2202148 1.2207,-1.3945312 0.34864,0.3486328 0.87207,1.5688472 -1.56933,4.5332032 l 2.09277,1.568848 v 4.184082 c 0,0 -2.44141,1.220703 -4.5332,2.791015 0,0 -1.22071,-1.570312 -2.2666,-0.873047 -0.87207,0.523438 -0.52344,1.394531 0.52246,1.744141 l 0,0 z m -1.74317,-3.138672 c 0,0 1.0459,-1.743164 2.96387,-1.394531 1.74414,0.349609 2.2666,2.091797 2.2666,2.091797 v -4.184082 l -1.21973,-1.046387 c -1.2207,1.395019 -3.6621,3.3125 -4.01074,4.533203 l 0,0 z m 2.79004,-8.89209 v 3.312988 l 1.0459,1.045899 c 0,0 2.44043,-1.917481 3.3125,-3.835449 0,0 -1.0459,1.569335 -2.61523,1.045898 -1.22071,-0.348633 -1.74317,-1.569336 -1.74317,-1.569336 l 0,0 z"
	style="fill:#c3c3c3;fill-rule:evenodd" />
    <path
   
	id="path33"
	d="m 106.82129,12.829102 0.87207,-0.697266 h 0.1748 l -0.87207,0.871582 v 6.625488 c 0,0 -1.74414,0.871094 -2.79004,1.570313 -1.2207,0.697265 -2.4414,1.394531 -2.4414,1.394531 l -3.137697,-2.615234 -0.697265,0.697265 h -0.174805 l 0.87207,-0.873047 v -7.147949 l 0,0 c 0,0 1.394527,-0.522949 2.615237,-1.220703 1.0459,-0.697266 2.2666,-1.394531 2.2666,-1.394531 l 3.3125,2.789551 0,0 z m -5.23047,5.92871 2.44141,2.265625 v -7.147949 l -2.44141,-2.266601 v 7.148925 l 0,0 z"
	style="fill:#c3c3c3;fill-rule:evenodd" />
    <path
   
	id="path35"
	d="m 112.92383,12.131836 1.91797,-1.917969 c 0,0 0.1748,0.174317 0.52343,0.348633 0.17383,0.174316 0.69727,0.348633 1.22071,0.174316 0.34863,-0.174316 0.34863,-0.348632 0.69726,-0.522949 0,1.569336 -0.69726,2.615235 -1.56933,2.963867 -0.52344,0.174317 -1.56934,0.523438 -2.79004,-0.871582 v 7.148926 l 1.39551,1.044922 0.87109,-0.697266 h 0.1748 l -3.13867,2.791016 -2.44043,-2.267578 -0.87207,0.873047 -0.1748,-0.175781 1.2207,-1.220704 v -6.101562 l -0.87207,-1.39502 -0.87109,0.697266 h -0.17481 l 3.13867,-2.789551 1.74317,1.917969 0,0 z"
	style="fill:#c3c3c3;fill-rule:evenodd" />
    <path
   
	id="path37"
	d="m 121.11914,15.27002 3.48731,-5.230469 c 0,0 0.52246,0.522949 1.39453,0.697265 1.04589,0.348633 2.09179,-0.697265 2.09179,-0.697265 -0.17382,1.394531 -0.87109,2.963867 -2.44043,3.138183 -1.2207,0.174317 -2.4414,-0.871582 -2.4414,-0.871582 l -0.17383,0.522949 4.88184,7.497071 1.04589,-0.871094 0.17481,0.173828 -3.48731,2.964844 -4.5332,-7.32373 0,0 z"
	style="fill:#c3c3c3;fill-rule:evenodd" />
    <path
   
	id="path39"
	d="m 118.15527,8.2958984 c 0,-1.2207031 -0.52343,-1.9179688 -1.2207,-1.9179688 l 4.00977,-2.6157227 V 19.28125 l 1.04687,1.044922 0.69727,-0.697266 0.17382,0.173828 -3.13867,2.791016 -2.09179,-2.09375 -0.87207,0.873047 -0.17383,-0.173828 1.56933,-1.396485 V 8.2958984 l 0,0 z"
	style="fill:#c3c3c3;fill-rule:evenodd" />
    <path
   
	id="path41"
	d="m 85.375488,7.9472656 c 0,-1.0463867 -0.522949,-1.5693359 -1.220703,-1.5693359 -1.045898,-0.1743164 -1.220215,1.3950195 -1.220215,1.3950195 0,0 -0.174316,-1.2207031 0.697266,-2.0922852 0.522949,-0.5234375 1.569336,-1.3950195 2.964356,-1.0463867 1.568847,0.3486328 2.092285,1.5693359 2.092285,2.6152344 V 21.720703 c 0,0 0.522949,0.175781 0.871582,0.175781 0.522949,0.173828 0.871582,0.173828 0.871582,0.173828 V 4.6342773 h 0.174804 v 2.440918 l 3.138184,-2.6152344 2.440918,2.0922852 1.045898,-0.871582 H 97.40625 L 96.185547,6.7265625 V 20.152344 c 0,0.871093 -0.174316,1.74414 -1.045898,2.265625 -1.743653,1.220703 -4.010254,-0.173828 -6.10254,-0.347657 -1.395019,-0.349609 -3.661621,-0.523437 -4.358886,0.871094 -0.174317,0.34961 -0.174317,1.046875 0.522949,1.570313 1.395019,0.871094 7.322754,-1.570313 9.415039,-0.523438 1.917969,0.871094 1.917969,2.091797 1.569336,3.138672 -0.522949,1.742188 -2.789551,2.091797 -2.789551,2.091797 0,0 1.220215,-0.697266 0.871582,-1.744141 -0.174316,-0.523437 -0.522949,-0.697265 -1.743652,-0.523437 -2.615235,0.349609 -5.579102,1.570312 -7.671387,0.699219 -1.046387,-0.523438 -1.917969,-1.744141 -1.743652,-3.138672 0,-1.917969 2.266601,-2.615235 2.266601,-2.615235 v -6.975097 c -0.174316,-0.174317 -1.220703,-0.174317 -1.569335,0.348633 -0.348633,0.87207 0.523437,1.220703 0.523437,1.220703 0,0 -0.697754,0 -1.395019,-0.697754 -0.174317,-0.348633 -0.872071,-1.394531 0,-2.615235 0.522949,-0.871582 1.395019,-1.045898 2.440918,-1.045898 V 7.9472656 l -10e-7,0 z m 5.230957,14.2968754 c 0,0 1.045899,0.173828 1.568848,-0.347657 C 93.046875,21.199219 92.873047,20.5 92.873047,20.5 v -5.404297 c 0,0 -0.349121,-0.697265 -1.046387,-0.697265 -0.697265,0 -1.220215,0.697265 -1.220215,0.697265 v 7.148438 l 0,0 z M 92.873047,7.9472656 91.478027,6.7265625 90.606445,7.2495117 v 5.0566403 c 0,0 0.52295,0.52295 1.220215,0.52295 0.697266,0 1.046387,-0.52295 1.046387,-0.52295 V 7.9472656 l 0,0 z m 0,4.7075194 c 0,0 -0.349121,0.348633 -1.046387,0.348633 -0.697265,0 -1.220215,-0.348633 -1.220215,-0.348633 v 2.092285 c 0,0 0.52295,-0.522949 1.220215,-0.522949 0.697266,0 1.046387,0.522949 1.046387,0.522949 v -2.092285 l 0,0 z"
	style="fill:#c3c3c3;fill-rule:evenodd" />
  </g>
</svg>
