<?xml version="1.0" encoding="utf-8"?>
<!-- Generator: Adobe Illustrator 16.0.0, SVG Export Plug-In . SVG Version: 6.00 Build 0)  -->
<!DOCTYPE svg PUBLIC "-//W3C//DTD SVG 1.1//EN" "http://www.w3.org/Graphics/SVG/1.1/DTD/svg11.dtd">
<svg version="1.1" id="Layer_1" xmlns="http://www.w3.org/2000/svg" xmlns:xlink="http://www.w3.org/1999/xlink" x="0px" y="0px"
	 width="341px" height="47px" viewBox="2 10 196 27" xml:space="preserve">
<g id="Layer_1_1_">
	<g>
		<g>
			<path fill="rgb(195, 195, 195)" d="M75.361,20.636V32.9h-4.48V20.636h-4.527v-3.903h13.533v3.903H75.361z"/>
			<path fill="rgb(195, 195, 195)" d="M90.346,28.027h-7.113c0.139,1.34,0.923,1.938,2.056,1.938c1.062,0,1.94-0.23,3.141-0.854l1.593,2.656
				c-1.501,0.877-3.048,1.385-4.941,1.385c-3.649,0-5.658-2.588-5.658-6.307c0-4.179,2.355-6.327,5.542-6.327
				c3.326,0,5.405,2.194,5.405,6.697C90.37,27.564,90.37,27.818,90.346,28.027z M84.85,23.592c-0.948,0-1.478,0.647-1.617,1.848
				h3.464C86.489,24.217,86.073,23.592,84.85,23.592z"/>
			<path fill="rgb(195, 195, 195)" d="M98.08,33.152c-3.556,0-5.681-2.262-5.681-6.351c0-3.718,1.895-6.282,5.774-6.282
				c2.287,0,3.603,1.062,4.666,2.771l-2.864,2.172c-0.577-1.062-0.971-1.572-1.871-1.572c-1.063,0-1.594,1.063-1.594,2.98
				s0.578,2.909,1.709,2.909c0.785,0,1.339-0.438,2.102-1.57l2.633,2.056C101.545,32.345,100.227,33.152,98.08,33.152z"/>
			<path fill="rgb(195, 195, 195)" d="M112.256,32.9v-6.885c0-1.57-0.531-1.983-1.385-1.983c-0.879,0-1.408,0.413-1.408,1.938v6.93h-4.158
				V17.727l4.158-1.664v5.52c0.762-0.578,1.615-1.062,3.047-1.062c2.656,0,3.928,1.778,3.928,4.965V32.9H112.256z"/>
			<path fill="rgb(195, 195, 195)" d="M126.387,33.152c-4.803,0-7.367-3.557-7.367-8.336c0-5.196,3.049-8.337,7.392-8.337
				c3.973,0,5.543,1.709,6.651,4.758l-4.063,1.593c-0.578-1.5-1.133-2.448-2.61-2.448c-1.869,0-2.679,1.87-2.679,4.435
				c0,2.471,0.785,4.434,2.726,4.434c1.407,0,2.01-0.762,2.887-2.285l3.787,2.008C132.023,31.098,130.221,33.152,126.387,33.152z"/>
			<path fill="rgb(195, 195, 195)" d="M143.334,25.348c-0.531-0.576-1.131-1.017-1.939-1.017c-1.018,0-1.641,0.485-1.641,1.963V32.9h-4.156
				V20.774h4.156v0.878c0.715-0.693,1.525-1.132,2.588-1.132c0.877,0,1.479,0.208,1.963,0.508L143.334,25.348z"/>
			<path fill="rgb(195, 195, 195)" d="M153.217,32.9V32.09c-0.74,0.578-1.617,1.062-3.025,1.062c-2.655,0-3.926-1.777-3.926-4.967v-7.412h4.18
				v6.884c0,1.568,0.531,1.984,1.386,1.984s1.387-0.416,1.387-1.94v-6.928h4.181V32.9H153.217z"/>
			<path fill="rgb(195, 195, 195)" d="M167.348,32.9v-6.885c0-1.57-0.531-1.983-1.387-1.983c-0.877,0-1.408,0.413-1.408,1.938v6.93h-4.158
				V20.774h4.158v0.809c0.762-0.578,1.615-1.062,3.049-1.062c2.656,0,3.926,1.778,3.926,4.965V32.9H167.348z"/>
			<path fill="rgb(195, 195, 195)" d="M179.629,33.152c-3.555,0-5.68-2.262-5.68-6.351c0-3.718,1.893-6.282,5.773-6.282
				c2.284,0,3.602,1.062,4.664,2.771l-2.863,2.172c-0.578-1.062-0.972-1.572-1.871-1.572c-1.062,0-1.594,1.063-1.594,2.98
				s0.575,2.909,1.709,2.909c0.784,0,1.34-0.438,2.102-1.57l2.633,2.056C183.094,32.345,181.777,33.152,179.629,33.152z"/>
			<path fill="rgb(195, 195, 195)" d="M193.807,32.9v-6.885c0-1.57-0.531-1.983-1.387-1.983c-0.877,0-1.408,0.413-1.408,1.938v6.93h-4.156
				V17.727l4.156-1.664v5.52c0.762-0.578,1.617-1.062,3.049-1.062c2.656,0,3.926,1.778,3.926,4.965V32.9H193.807z"/>
		</g>
		<g>
			<polygon fill="rgb(195, 195, 195)" points="2,10 2,19 11,19 11,37 20,37 20,19 29,19 29,10 			"/>
			<polygon fill="rgb(195, 195, 195)" points="38,28 38,19 29,19 29,37 56,37 56,28 			"/>
			<rect x="38" y="10" fill="rgb(195, 195, 195)" width="18" height="9"/>
		</g>
	</g>
</g>
<g id="Layer_2" display="none">
</g>
</svg>
