<?xml version="1.0" encoding="utf-8"?>
<!-- Generator: Adobe Illustrator 16.0.0, SVG Export Plug-In . SVG Version: 6.00 Build 0)  -->
<!DOCTYPE svg PUBLIC "-//W3C//DTD SVG 1.1//EN" "http://www.w3.org/Graphics/SVG/1.1/DTD/svg11.dtd">
<svg version="1.1" id="Layer_1" xmlns="http://www.w3.org/2000/svg" xmlns:xlink="http://www.w3.org/1999/xlink" x="0px" y="0px"
	 width="142.758px" height="47px" viewBox="41.485 4.232 117.031 38.530" enable-background="new 0 0 200 47" xml:space="preserve">
<g>
	<path fill="rgb(195, 195, 195)" d="M53.943,6.939l-3.408-0.016h-5.282c-0.367,0-3.2,0.027-3.2,0.027l-0.051,4.581l-0.517,0.016l0.031-5.149
		l-0.019-2.115c1.801,0.087,8.306,0.145,15.056,0.145c7.872,0,12.942-0.08,14.933-0.139l-0.023,2.344l0.042,5.208l-0.536-0.005
		c0.003-0.426-0.089-2.153-0.083-2.322c0.003-0.063-0.112-2.385-0.128-2.559l-2.261-0.031l-6.771-0.002l-2.595,0.011l0.004,32.129
		c0,0.045,0.049,2.106,0.058,2.535c0.261,0.037,2.771,0.211,3.224,0.211l0.178-0.004v0.877c-0.135,0-0.303,0.014-0.442,0.014
		c-1.426-0.016-3.728-0.188-5.362-0.188c-1.61,0-3.88,0.159-5.56,0.184c-0.045,0.002-0.388-0.006-0.518-0.012l-0.004-0.934
		c0.017,0,0.12-0.004,0.277-0.008c0.709-0.028,2.456-0.146,2.911-0.184l0.07-0.012L53.943,6.939L53.943,6.939z M84.354,42.716
		c-1.321,0-3.567-0.218-5.25-0.218c-1.664,0-3.922,0.218-5.547,0.218c-0.139,0-0.382-0.028-0.516-0.028v-0.912
		c0.32-0.008,1.758-0.139,2.156-0.168c0.469-0.033,0.901-0.058,1.094-0.121c0,0,0.004-1.1,0.01-2.805
		c0.018-5.894,0.053-22.558-0.003-30.098c-0.006-0.795-0.011-2.812-0.011-3.104c-0.305-0.03-0.73-0.07-1.034-0.111
		c-0.382-0.021-1.951-0.171-2.22-0.186l-0.01-0.913c1.558,0,3.869,0.158,5.746,0.158c1.793,0,4.226-0.158,6.066-0.158l-0.003,0.952
		c-0.292,0.02-1.003,0.064-1.026,0.066c-0.537,0.051-2.039,0.222-2.408,0.247c0,0.568,0,1.628,0,2.934
		c-0.001,6.751-0.008,24.414-0.011,30.361c0,0.779,0,1.497,0,1.929c0,0.453,0.003,0.728,0.008,0.743
		c0.009,0.034,0.95,0.122,1.167,0.137c0.416,0.047,2.125,0.122,2.177,0.135h0.115l-0.001,0.912
		C84.74,42.688,84.468,42.716,84.354,42.716L84.354,42.716z M96.213,17.075c0,0-0.851,4.701-2.078,11.335
		c-0.65,3.583-1.996,12.544-2.087,13.136c0.776,0.116,2.305,0.24,2.721,0.228c0.095,0,0.259,0.004,0.379,0.004l-0.001,0.906
		c-0.174,0.023-0.579,0.026-0.597,0.026c-1.472-0.03-2.533-0.144-4.122-0.144c-0.418,0-2.628,0.113-3.406,0.142
		c-0.324,0.015-0.784-0.021-0.871-0.019l0.001-0.897c0.076,0,0.23-0.032,0.328-0.034c0.704-0.031,1.788-0.141,2.706-0.261
		c0.075-0.44,0.869-4.858,1.121-6.424c0.976-5.179,3.851-22.483,4.211-24.816c0.314-2.521,0.682-5.655,0.715-6
		c0.762,0.013,2.077-0.018,2.077-0.018s2.543,7.905,2.957,9.062c0.415,1.158,8.188,21.161,8.188,21.161s3.65-8.618,6.902-17.867
		c0.658-1.871,1.521-4.312,2.158-6.291c0.932-2.893,1.955-6.066,1.955-6.066h2.002c0,0,0.495,3.533,0.672,5.105
		c0.512,4.579,3.854,23.183,5.027,29.302c0.293,1.531,0.516,2.856,0.516,2.856c0.346,0.024,1.697,0.157,2.498,0.226
		c0.168,0.014,0.617,0.039,0.721,0.039l0.004,0.922c0,0-0.365,0.02-0.564,0.02c-1.791-0.012-4.586-0.173-6.31-0.173
		c-1.533,0-3.009,0.133-4.542,0.165c-0.262,0.005-0.523-0.008-0.79-0.008v-0.912c0.008-0.002,0.213-0.014,0.319-0.01
		c0.748-0.035,2.733-0.229,2.932-0.238c0.002-0.336-0.107-1.493-0.268-2.678c-0.113-0.838-0.303-2.265-0.504-3.672
		c-0.438-2.736-2.459-14.075-3.059-17.224c-0.1-0.516-0.161-0.805-0.161-0.805s-6.261,16.061-7.522,19.225
		c-0.123,0.312-0.211,0.529-0.24,0.603c-1.206,3.047-2.219,5.765-2.219,5.765l-1.781-0.011l-9.756-25.075L96.213,17.075
		L96.213,17.075z M158.15,11.786l-0.517,0.002l-0.004-0.271c-0.055-0.67-0.166-2.563-0.31-4.156
		c-0.012-0.143-0.035-0.254-0.035-0.254c-0.311-0.01-1.57-0.05-1.59-0.071c-0.021-0.019-1.025-0.032-1.047-0.044
		c-0.01-0.005-3.305-0.024-6.699-0.027c-2.319-0.002-4.6,0.013-5.998,0.013c-0.344-0.001-1.577,0.047-1.577,0.047l-0.007,15.119
		l9.707,0.032c0.047,0,2.572-0.078,2.633-0.077c0.152,0.001,1.887-0.099,1.952-0.122c0,0,0.026-0.159,0.067-0.274
		c0.14-0.914,0.318-1.783,0.361-2.462c0,0,0.046-0.291,0.049-0.486l0.553-0.013c0,0.071,0.027,0.245,0.024,0.492
		c-0.005,0.91-0.071,2.803-0.067,4.044c0.002,1.785,0.051,3.397,0.062,4.205c0.007,0.23-0.008,0.6-0.008,0.6h-0.604
		c-0.012-0.086-0.021-0.173-0.033-0.268c-0.107-1.028-0.195-1.758-0.356-2.806c-0.005-0.055-0.035-0.243-0.048-0.364
		c-0.309-0.021-1.127-0.049-1.561-0.062c-0.19-0.006-2.558-0.022-5.222-0.026c-1.091-0.002-3.051,0.049-3.882,0.047
		c-0.975,0-2.58,0.062-3.631,0.102l0.011,13.711l0.043,1.766l5.894,0.103l8.394-0.007c0.038,0,1.922-0.075,2.51-0.065
		c0.125,0.003,0.376-0.019,0.376-0.019c0.057-0.442,0.125-1.342,0.194-2.196c0.005-0.103,0.214-2.376,0.214-2.987l0.518-0.006
		c0,0.578-0.109,7.762-0.109,7.762c-0.946,0-3.85-0.004-7.436-0.056c-2.176-0.033-4.599-0.03-6.988-0.065
		c-1.938-0.028-3.855-0.099-5.603-0.096c-2.485,0.002-4.921,0.165-5.866,0.167c-0.216,0-0.598-0.015-0.681-0.015v-0.904h0.173
		c0.583-0.002,2.299-0.104,3.193-0.27c0-0.184,0.059-2.418,0.059-2.465c0,0-0.005-28.39-0.005-29.663
		c0-1.371-0.022-3.657-0.022-3.859c-0.508-0.06-0.688-0.092-0.793-0.114c-0.537-0.075-1.597-0.168-2.162-0.208
		c-0.16,0.004-0.338-0.018-0.424-0.032c0,0-0.004-0.888-0.01-0.9c0.131,0.007,0.395-0.013,0.87-0.01
		c1.001,0.004,2.843,0.152,5.093,0.154c1.413,0.001,3.693-0.067,5.327-0.089c2.331,0,4.099-0.021,6.356-0.036
		c3.683-0.025,6.828-0.051,8.059-0.058c0.36-0.001,0.557-0.003,0.557-0.003c0,0.071-0.002,0.152-0.002,0.243
		c0,0.286-0.014,0.787-0.008,1.401C158.105,7.798,158.15,10.805,158.15,11.786L158.15,11.786z"/>
</g>
</svg>
